<?xml version="1.0" encoding="utf-8"?>
<!-- Generator: Adobe Illustrator 16.0.4, SVG Export Plug-In . SVG Version: 6.00 Build 0)  -->
<!DOCTYPE svg PUBLIC "-//W3C//DTD SVG 1.1//EN" "http://www.w3.org/Graphics/SVG/1.1/DTD/svg11.dtd">
<svg version="1.1" id="Layer_1" xmlns="http://www.w3.org/2000/svg" xmlns:xlink="http://www.w3.org/1999/xlink" x="0px" y="0px"
	 width="1461px" height="861px" viewBox="0 0 1461 861" enable-background="new 0 0 1461 861" xml:space="preserve">
<g>
	<path fill="#BCBCBC" stroke="#BCBCBC" d="M-111.442-100.593l8.172,1091.428l12.209-129.974L-111.442-100.593z"/>
	<path fill="#D0D0D0" stroke="#D0D0D0" d="M-111.442-100.593l20.382,961.454l16.048-179.786L-111.442-100.593z"/>
	<path fill="#F4F4F4" stroke="#F4F4F4" d="M-111.442-100.593l36.43,781.668l23.203-363.262L-111.442-100.593z"/>
	<path fill="#FFFFFF" stroke="#FFFFFF" d="M-111.442-100.593l59.633,418.406l2.467-85.353L-111.442-100.593z"/>
	<path fill="#FFFFFF" stroke="#FFFFFF" d="M-111.442-100.593l62.1,333.053l26.228-168.512L-111.442-100.593z"/>
	<path fill="#FFFFFF" stroke="#FFFFFF" d="M-111.442-100.593l88.328,164.541l90.166-87.735L-111.442-100.593z"/>
	<path fill="#FEFEFE" stroke="#FEFEFE" d="M-111.442-100.593L67.051-23.787l103.38-81.218L-111.442-100.593z"/>
	<path fill="#F9F9F9" stroke="#F9F9F9" d="M-111.442-100.593l281.874-4.413l195.708-22.526L-111.442-100.593z"/>
	<path fill="#FDFDFD" stroke="#FDFDFD" d="M67.051-23.787l-90.166,87.735l131.617-18.497L67.051-23.787z"/>
	<path fill="#FBFBFB" stroke="#FBFBFB" d="M67.051-23.787l41.452,69.238l61.929-150.457L67.051-23.787z"/>
	<path fill="#F9F9F9" stroke="#F9F9F9" d="M170.432-105.005L108.503,45.451l63.448,27.882L170.432-105.005z"/>
	<path fill="#F4F4F4" stroke="#F4F4F4" d="M170.432-105.005l1.52,178.338L366.14-127.531L170.432-105.005z"/>
	<path fill="#F0F0F0" stroke="#F0F0F0" d="M366.14-127.531L171.951,73.333l203.964,33.904L366.14-127.531z"/>
	<path fill="#E8E8E8" stroke="#E8E8E8" d="M366.14-127.531l9.775,234.769L517.96-115.702L366.14-127.531z"/>
	<path fill="#DDDDDD" stroke="#DDDDDD" d="M366.14-127.531l151.82,11.829l277.743-9.011L366.14-127.531z"/>
	<path fill="#E4E4E4" stroke="#E4E4E4" d="M517.96-115.702L375.915,107.237l129.339,13.11L517.96-115.702z"/>
	<path fill="#DCDCDC" stroke="#DCDCDC" d="M517.96-115.702l-12.706,236.05l189.695-75.129L517.96-115.702z"/>
	<path fill="#D5D5D5" stroke="#D5D5D5" d="M517.96-115.702L694.949,45.219l-2.233-160.346L517.96-115.702z"/>
	<path fill="#D1D1D1" stroke="#D1D1D1" d="M517.96-115.702l174.756,0.575l102.987-9.586L517.96-115.702z"/>
	<path fill="#CBCBCB" stroke="#CBCBCB" d="M692.716-115.127l2.233,160.346l100.754-169.932L692.716-115.127z"/>
	<path fill="#C6C6C6" stroke="#C6C6C6" d="M795.703-124.713L694.949,45.219l143.948,37.513L795.703-124.713z"/>
	<path fill="#BEBEBE" stroke="#BEBEBE" d="M795.703-124.713l43.194,207.445L941.99-28.502L795.703-124.713z"/>
	<path fill="#B7B7B7" stroke="#B7B7B7" d="M795.703-124.713L941.99-28.502l124.883-48.387L795.703-124.713z"/>
	<path fill="#ACACAC" stroke="#ACACAC" d="M795.703-124.713l271.17,47.825l239.104,1.665L795.703-124.713z"/>
	<path fill="#9A9A9A" stroke="#9A9A9A" d="M795.703-124.713l510.273,49.49l228.013,7.03L795.703-124.713z"/>
	<path fill="#B7B7B7" stroke="#B7B7B7" d="M941.99-28.502L838.897,82.732l180.023-4.577L941.99-28.502z"/>
	<path fill="#B1B1B1" stroke="#B1B1B1" d="M941.99-28.502l76.931,106.657l47.952-155.044L941.99-28.502z"/>
	<path fill="#ACACAC" stroke="#ACACAC" d="M1066.873-76.889l-47.952,155.044l64.675,9.201L1066.873-76.889z"/>
	<path fill="#A5A5A5" stroke="#A5A5A5" d="M1066.873-76.889l16.723,164.245l136.992,30.809L1066.873-76.889z"/>
	<path fill="#9C9C9C" stroke="#9C9C9C" d="M1066.873-76.889l153.715,195.054l85.389-193.389L1066.873-76.889z"/>
	<path fill="#8F8F8F" stroke="#8F8F8F" d="M1305.977-75.224l-85.389,193.389l171.729-101.634L1305.977-75.224z"/>
	<path fill="#878787" stroke="#878787" d="M1305.977-75.224l86.341,91.755l22.61-85.524L1305.977-75.224z"/>
	<path fill="#818181" stroke="#818181" d="M1305.977-75.224l108.951,6.23l119.062,0.8L1305.977-75.224z"/>
	<path fill="#808080" stroke="#808080" d="M1414.928-68.993l-22.61,85.524l141.672-84.725L1414.928-68.993z"/>
	<path fill="#808080" stroke="#808080" d="M1533.989-68.193l-141.672,84.725l141.909,76.95L1533.989-68.193z"/>
	<path fill="#808080" stroke="#808080" d="M1533.989-68.193l0.237,161.674l85.46,372.553L1533.989-68.193z"/>
	<path fill="#FFFFFF" stroke="#FFFFFF" d="M-23.114,63.948L-49.342,232.46l139.631-0.609L-23.114,63.948z"/>
	<path fill="#FDFDFD" stroke="#FDFDFD" d="M-23.114,63.948L90.289,231.851l18.214-186.399L-23.114,63.948z"/>
	<path fill="#FAFAFA" stroke="#FAFAFA" d="M108.503,45.451L90.289,231.851l81.663-158.518L108.503,45.451z"/>
	<path fill="#F8F8F8" stroke="#F8F8F8" d="M171.951,73.333L90.289,231.851l165.308-4.081L171.951,73.333z"/>
	<path fill="#F2F2F2" stroke="#F2F2F2" d="M171.951,73.333l83.645,154.437l120.319-120.532L171.951,73.333z"/>
	<path fill="#EFEFEF" stroke="#EFEFEF" d="M375.915,107.237L255.596,227.77l94.464,31.568L375.915,107.237z"/>
	<path fill="#E9E9E9" stroke="#E9E9E9" d="M375.915,107.237l-25.854,152.101l158.759-4.001L375.915,107.237z"/>
	<path fill="#E5E5E5" stroke="#E5E5E5" d="M375.915,107.237l132.904,148.1l-3.565-134.989L375.915,107.237z"/>
	<path fill="#DEDEDE" stroke="#DEDEDE" d="M505.254,120.348l3.565,134.989l124.829-0.094L505.254,120.348z"/>
	<path fill="#D7D7D7" stroke="#D7D7D7" d="M505.254,120.348l128.395,134.895l61.301-210.024L505.254,120.348z"/>
	<path fill="#CCCCCC" stroke="#CCCCCC" d="M694.949,45.219l-61.301,210.024l203.121-4.973L694.949,45.219z"/>
	<path fill="#C5C5C5" stroke="#C5C5C5" d="M694.949,45.219L836.77,250.27l2.128-167.538L694.949,45.219z"/>
	<path fill="#BCBCBC" stroke="#BCBCBC" d="M838.897,82.732L836.77,250.27l130.541-8.717L838.897,82.732z"/>
	<path fill="#B7B7B7" stroke="#B7B7B7" d="M838.897,82.732l128.413,158.821l51.61-163.397L838.897,82.732z"/>
	<path fill="#AFAFAF" stroke="#AFAFAF" d="M1018.921,78.155l-51.61,163.397l120.391,14.308L1018.921,78.155z"/>
	<path fill="#ACACAC" stroke="#ACACAC" d="M1018.921,78.155l68.78,177.706l-4.105-168.505L1018.921,78.155z"/>
	<path fill="#A4A4A4" stroke="#A4A4A4" d="M1083.596,87.356l4.105,168.505l132.887-137.696L1083.596,87.356z"/>
	<path fill="#9C9C9C" stroke="#9C9C9C" d="M1220.588,118.165l-132.887,137.696l134.03,66.146L1220.588,118.165z"/>
	<path fill="#959595" stroke="#959595" d="M1220.588,118.165l1.144,203.842l95.263-126.126L1220.588,118.165z"/>
	<path fill="#8E8E8E" stroke="#8E8E8E" d="M1220.588,118.165l96.406,77.716l75.323-179.35L1220.588,118.165z"/>
	<path fill="#818181" stroke="#818181" d="M1392.317,16.531l-75.323,179.35l217.232-102.4L1392.317,16.531z"/>
	<path fill="#808080" stroke="#808080" d="M1534.227,93.481l-217.232,102.4l120.157,70.739L1534.227,93.481z"/>
	<path fill="#808080" stroke="#808080" d="M1534.227,93.481l-97.075,173.14l117.905-7.215L1534.227,93.481z"/>
	<path fill="#787878" stroke="#787878" d="M1534.227,93.481l20.83,165.925l64.63,206.628L1534.227,93.481z"/>
	<path fill="#F9F9F9" stroke="#F9F9F9" d="M-49.342,232.46l-2.467,85.353l142.098-85.962L-49.342,232.46z"/>
	<path fill="#F0F0F0" stroke="#F0F0F0" d="M90.289,231.851L-51.81,317.813l122.818,77.652L90.289,231.851z"/>
	<path fill="#EBEBEB" stroke="#EBEBEB" d="M90.289,231.851l-19.28,163.614l185.853-53.826L90.289,231.851z"/>
	<path fill="#F0F0F0" stroke="#F0F0F0" d="M90.289,231.851l166.573,109.789l-1.265-113.87L90.289,231.851z"/>
	<path fill="#E9E9E9" stroke="#E9E9E9" d="M255.596,227.77l1.265,113.87l93.199-82.301L255.596,227.77z"/>
	<path fill="#DFDFDF" stroke="#DFDFDF" d="M350.061,259.338l-93.199,82.301l123.281,33.274L350.061,259.338z"/>
	<path fill="#DDDDDD" stroke="#DDDDDD" d="M350.061,259.338l30.082,115.576l128.677-119.577L350.061,259.338z"/>
	<path fill="#D1D1D1" stroke="#D1D1D1" d="M508.819,255.337L380.143,374.914l116.995,33.285L508.819,255.337z"/>
	<path fill="#D2D2D2" stroke="#D2D2D2" d="M508.819,255.337l-11.682,152.861l136.511-152.956L508.819,255.337z"/>
	<path fill="#C0C0C0" stroke="#C0C0C0" d="M633.648,255.243L497.138,408.198L693.133,424.1L633.648,255.243z"/>
	<path fill="#B9B9B9" stroke="#B9B9B9" d="M633.648,255.243L693.133,424.1l79.587-49.575L633.648,255.243z"/>
	<path fill="#BEBEBE" stroke="#BEBEBE" d="M633.648,255.243L772.72,374.524l64.05-124.254L633.648,255.243z"/>
	<path fill="#ADADAD" stroke="#ADADAD" d="M836.77,250.27l-64.05,124.254l145.128,25.604L836.77,250.27z"/>
	<path fill="#AEAEAE" stroke="#AEAEAE" d="M836.77,250.27l81.078,149.859l49.463-158.576L836.77,250.27z"/>
	<path fill="#A7A7A7" stroke="#A7A7A7" d="M967.311,241.553l-49.463,158.576l169.854-144.268L967.311,241.553z"/>
	<path fill="#9A9A9A" stroke="#9A9A9A" d="M1087.701,255.861L917.848,400.129l243.913-41.273L1087.701,255.861z"/>
	<path fill="#949494" stroke="#949494" d="M1087.701,255.861l74.06,102.995l59.971-36.848L1087.701,255.861z"/>
	<path fill="#868686" stroke="#868686" d="M1316.994,195.881l-95.263,126.126l215.42-55.387L1316.994,195.881z"/>
	<path fill="#757575" stroke="#757575" d="M1437.151,266.621l-215.42,55.387l238.754,94.238L1437.151,266.621z"/>
	<path fill="#6E6E6E" stroke="#6E6E6E" d="M1437.151,266.621l23.334,149.625l82.01-94.739L1437.151,266.621z"/>
	<path fill="#767676" stroke="#767676" d="M1437.151,266.621l105.344,54.886l12.562-62.101L1437.151,266.621z"/>
	<path fill="#6B6B6B" stroke="#6B6B6B" d="M1555.057,259.406l-12.562,62.101l77.191,144.528L1555.057,259.406z"/>
	<path fill="#C9C9C9" stroke="#C9C9C9" d="M-51.81,317.813l-23.203,363.262l27.019-142.96L-51.81,317.813z"/>
	<path fill="#DCDCDC" stroke="#DCDCDC" d="M-51.81,317.813l3.816,220.302l119.002-142.65L-51.81,317.813z"/>
	<path fill="#C9C9C9" stroke="#C9C9C9" d="M71.009,395.465l-119.002,142.65l139.625,40.658L71.009,395.465z"/>
	<path fill="#C5C5C5" stroke="#C5C5C5" d="M71.009,395.465l20.623,183.309l181.144-46.875L71.009,395.465z"/>
	<path fill="#D2D2D2" stroke="#D2D2D2" d="M71.009,395.465l201.766,136.434l-15.914-190.259L71.009,395.465z"/>
	<path fill="#C4C4C4" stroke="#C4C4C4" d="M256.861,341.639l15.914,190.259l51.811-4.559L256.861,341.639z"/>
	<path fill="#CDCDCD" stroke="#CDCDCD" d="M256.861,341.639l67.725,185.701l55.557-152.426L256.861,341.639z"/>
	<path fill="#C3C3C3" stroke="#C3C3C3" d="M380.143,374.914L324.586,527.34l172.552-119.142L380.143,374.914z"/>
	<path fill="#B6B6B6" stroke="#B6B6B6" d="M497.138,408.198L324.586,527.34l210.054-17.508L497.138,408.198z"/>
	<path fill="#B2B2B2" stroke="#B2B2B2" d="M497.138,408.198l37.502,101.634L693.133,424.1L497.138,408.198z"/>
	<path fill="#9F9F9F" stroke="#9F9F9F" d="M693.133,424.1L534.64,509.832l186.562,61.682L693.133,424.1z"/>
	<path fill="#969696" stroke="#969696" d="M693.133,424.1l28.068,147.414l95.43-77.273L693.133,424.1z"/>
	<path fill="#A2A2A2" stroke="#A2A2A2" d="M693.133,424.1l123.498,70.141L772.72,374.524L693.133,424.1z"/>
	<path fill="#9C9C9C" stroke="#9C9C9C" d="M772.72,374.524l43.911,119.716l101.217-94.111L772.72,374.524z"/>
	<path fill="#898989" stroke="#898989" d="M917.848,400.129L816.631,494.24l143.879,85.476L917.848,400.129z"/>
	<path fill="#7D7D7D" stroke="#7D7D7D" d="M917.848,400.129l42.662,179.587l154.902-46.792L917.848,400.129z"/>
	<path fill="#868686" stroke="#868686" d="M917.848,400.129l197.564,132.795l46.349-174.068L917.848,400.129z"/>
	<path fill="#757575" stroke="#757575" d="M1161.761,358.855l-46.349,174.068l110.141-65.562L1161.761,358.855z"/>
	<path fill="#808080" stroke="#808080" d="M1161.761,358.855l63.792,108.507l-3.821-145.355L1161.761,358.855z"/>
	<path fill="#6F6F6F" stroke="#6F6F6F" d="M1221.731,322.007l3.821,145.355l234.933-51.117L1221.731,322.007z"/>
	<path fill="#595959" stroke="#595959" d="M1460.485,416.245l-234.933,51.117l224.322,36.94L1460.485,416.245z"/>
	<path fill="#545454" stroke="#545454" d="M1460.485,416.245l-10.61,88.058l169.812-38.269L1460.485,416.245z"/>
	<path fill="#606060" stroke="#606060" d="M1460.485,416.245l159.201,49.789l-77.191-144.528L1460.485,416.245z"/>
	<path fill="#B9B9B9" stroke="#B9B9B9" d="M-47.994,538.115l-27.019,142.96L91.631,578.773L-47.994,538.115z"/>
	<path fill="#ADADAD" stroke="#ADADAD" d="M91.631,578.773L-75.012,681.075l183.243,23.781L91.631,578.773z"/>
	<path fill="#ABABAB" stroke="#ABABAB" d="M91.631,578.773l16.6,126.083l169.513-62.274L91.631,578.773z"/>
	<path fill="#B2B2B2" stroke="#B2B2B2" d="M91.631,578.773l186.113,63.809l-4.969-110.684L91.631,578.773z"/>
	<path fill="#B0B0B0" stroke="#B0B0B0" d="M272.775,531.898l4.969,110.684l46.842-115.242L272.775,531.898z"/>
	<path fill="#A7A7A7" stroke="#A7A7A7" d="M324.586,527.34l-46.842,115.242l59.534,34.088L324.586,527.34z"/>
	<path fill="#A0A0A0" stroke="#A0A0A0" d="M324.586,527.34l12.692,149.33l194.957-28.511L324.586,527.34z"/>
	<path fill="#A5A5A5" stroke="#A5A5A5" d="M324.586,527.34l207.649,120.819l2.404-138.327L324.586,527.34z"/>
	<path fill="#979797" stroke="#979797" d="M534.64,509.832l-2.404,138.327l188.966-76.646L534.64,509.832z"/>
	<path fill="#888888" stroke="#888888" d="M721.201,571.514l-188.966,76.646l128.049,47.21L721.201,571.514z"/>
	<path fill="#7B7B7B" stroke="#7B7B7B" d="M721.201,571.514l-60.917,123.855l133.727-9.204L721.201,571.514z"/>
	<path fill="#838383" stroke="#838383" d="M721.201,571.514l72.81,114.651l22.62-191.925L721.201,571.514z"/>
	<path fill="#7B7B7B" stroke="#7B7B7B" d="M816.631,494.24l-22.62,191.925L960.51,579.716L816.631,494.24z"/>
	<path fill="#686868" stroke="#686868" d="M960.51,579.716L794.011,686.165l187.762,19.549L960.51,579.716z"/>
	<path fill="#5D5D5D" stroke="#5D5D5D" d="M960.51,579.716l21.263,125.998l160.801-20.719L960.51,579.716z"/>
	<path fill="#656565" stroke="#656565" d="M960.51,579.716l182.063,105.279l-27.161-152.071L960.51,579.716z"/>
	<path fill="#515151" stroke="#515151" d="M1115.412,532.924l27.161,152.071l132.527,16.299L1115.412,532.924z"/>
	<path fill="#5B5B5B" stroke="#5B5B5B" d="M1115.412,532.924l159.688,168.37l-49.548-233.932L1115.412,532.924z"/>
	<path fill="#484848" stroke="#484848" d="M1225.553,467.362l49.548,233.932l155.92-62.952L1225.553,467.362z"/>
	<path fill="#4D4D4D" stroke="#4D4D4D" d="M1225.553,467.362l205.468,170.979l18.854-134.039L1225.553,467.362z"/>
	<path fill="#383838" stroke="#383838" d="M1449.875,504.303l-18.854,134.039l122.507,37.63L1449.875,504.303z"/>
	<path fill="#434343" stroke="#434343" d="M1449.875,504.303l103.652,171.669l66.159-209.938L1449.875,504.303z"/>
	<path fill="#2E2E2E" stroke="#2E2E2E" d="M1619.687,466.034l-66.159,209.938l-3.777,163.16L1619.687,466.034z"/>
	<path fill="#111111" stroke="#111111" d="M1619.687,466.034l-69.937,373.098l2.156,182.697L1619.687,466.034z"/>
	<path fill="#8B8B8B" stroke="#8B8B8B" d="M-75.012,681.075l-16.048,179.786l116.67-8.484L-75.012,681.075z"/>
	<path fill="#979797" stroke="#979797" d="M-75.012,681.075L25.609,852.377l82.622-147.521L-75.012,681.075z"/>
	<path fill="#888888" stroke="#888888" d="M108.231,704.856L25.609,852.377l165.799-39.302L108.231,704.856z"/>
	<path fill="#969696" stroke="#969696" d="M108.231,704.856l83.177,108.219l86.336-170.493L108.231,704.856z"/>
	<path fill="#939393" stroke="#939393" d="M277.744,642.582l-86.336,170.493l145.87-136.405L277.744,642.582z"/>
	<path fill="#808080" stroke="#808080" d="M337.278,676.67l-145.87,136.405L384.794,856.4L337.278,676.67z"/>
	<path fill="#858585" stroke="#858585" d="M337.278,676.67l47.516,179.73l147.441-208.241L337.278,676.67z"/>
	<path fill="#737373" stroke="#737373" d="M532.235,648.159L384.794,856.4l192.236-32.346L532.235,648.159z"/>
	<path fill="#787878" stroke="#787878" d="M532.235,648.159l44.795,175.896l83.254-128.686L532.235,648.159z"/>
	<path fill="#606060" stroke="#606060" d="M660.284,695.369L577.03,824.055l144.434,36.042L660.284,695.369z"/>
	<path fill="#636363" stroke="#636363" d="M660.284,695.369l61.18,164.728l72.547-173.932L660.284,695.369z"/>
	<path fill="#4D4D4D" stroke="#4D4D4D" d="M794.011,686.165l-72.547,173.932l159.234,23.092L794.011,686.165z"/>
	<path fill="#484848" stroke="#484848" d="M794.011,686.165l86.688,197.023l62.286-53.441L794.011,686.165z"/>
	<path fill="#535353" stroke="#535353" d="M794.011,686.165l148.974,143.582l38.788-124.033L794.011,686.165z"/>
	<path fill="#3E3E3E" stroke="#3E3E3E" d="M981.772,705.714l-38.788,124.033l155.189,7.515L981.772,705.714z"/>
	<path fill="#444444" stroke="#444444" d="M981.772,705.714l116.401,131.548l44.399-152.267L981.772,705.714z"/>
	<path fill="#2E2E2E" stroke="#2E2E2E" d="M1142.573,684.995l-44.399,152.267l186.618-7.577L1142.573,684.995z"/>
	<path fill="#323232" stroke="#323232" d="M1142.573,684.995l142.219,144.689l-9.691-128.391L1142.573,684.995z"/>
	<path fill="#1A1A1A" stroke="#1A1A1A" d="M1275.101,701.294l9.691,128.391l187.437-22.214L1275.101,701.294z"/>
	<path fill="#242424" stroke="#242424" d="M1275.101,701.294l197.128,106.177l-41.208-169.129L1275.101,701.294z"/>
	<path fill="#222222" stroke="#222222" d="M1431.021,638.342l41.208,169.129l81.299-131.499L1431.021,638.342z"/>
	<path fill="#111111" stroke="#111111" d="M1553.527,675.972l-81.299,131.499l77.521,31.661L1553.527,675.972z"/>
	<path fill="#808080" stroke="#808080" d="M-91.061,860.861l-12.209,129.974L25.609,852.377L-91.061,860.861z"/>
	<path fill="#7F7F7F" stroke="#7F7F7F" d="M25.609,852.377L-103.27,990.835l219.358-51.28L25.609,852.377z"/>
	<path fill="#7B7B7B" stroke="#7B7B7B" d="M25.609,852.377l90.479,87.178l75.32-126.479L25.609,852.377z"/>
	<path fill="#797979" stroke="#797979" d="M191.408,813.075l-75.32,126.479l80.442-9.559L191.408,813.075z"/>
	<path fill="#747474" stroke="#747474" d="M191.408,813.075l5.123,116.921L384.794,856.4L191.408,813.075z"/>
	<path fill="#6F6F6F" stroke="#6F6F6F" d="M384.794,856.4l-188.263,73.596l195.342,92.602L384.794,856.4z"/>
	<path fill="#686868" stroke="#686868" d="M384.794,856.4l7.079,166.197L516.1,961.472L384.794,856.4z"/>
	<path fill="#636363" stroke="#636363" d="M384.794,856.4L516.1,961.472l60.931-137.417L384.794,856.4z"/>
	<path fill="#5B5B5B" stroke="#5B5B5B" d="M577.03,824.055L516.1,961.472l145.614,8.98L577.03,824.055z"/>
	<path fill="#535353" stroke="#535353" d="M577.03,824.055l84.684,146.397l59.75-110.355L577.03,824.055z"/>
	<path fill="#4D4D4D" stroke="#4D4D4D" d="M721.464,860.097l-59.75,110.355l104.497-3.682L721.464,860.097z"/>
	<path fill="#464646" stroke="#464646" d="M721.464,860.097l44.747,106.674l114.487-83.582L721.464,860.097z"/>
	<path fill="#3F3F3F" stroke="#3F3F3F" d="M880.698,883.188l-114.487,83.582l171.54,9.029L880.698,883.188z"/>
	<path fill="#393939" stroke="#393939" d="M880.698,883.188l57.053,92.611l5.233-146.053L880.698,883.188z"/>
	<path fill="#333333" stroke="#333333" d="M942.984,829.747L937.751,975.8l160.423-138.538L942.984,829.747z"/>
	<path fill="#2E2E2E" stroke="#2E2E2E" d="M1098.174,837.262L937.751,975.8l141.657,50.481L1098.174,837.262z"/>
	<path fill="#242424" stroke="#242424" d="M1098.174,837.262l-18.766,189.02l168.507-97.203L1098.174,837.262z"/>
	<path fill="#1B1B1B" stroke="#1B1B1B" d="M1098.174,837.262l149.741,91.816l36.877-99.394L1098.174,837.262z"/>
	<path fill="#0D0D0D" stroke="#0D0D0D" d="M1284.792,829.685l-36.877,99.394l197.997,70.055L1284.792,829.685z"/>
	<path fill="#040404" stroke="#040404" d="M1284.792,829.685l161.12,169.448l26.316-191.662L1284.792,829.685z"/>
	<path stroke="#000000" d="M1472.229,807.471l-26.316,191.662l103.838-160.001L1472.229,807.471z"/>
	<path stroke="#000000" d="M1549.75,839.132l-103.838,160.001l105.994,22.696L1549.75,839.132z"/>
	<path fill="#7A7A7A" stroke="#7A7A7A" d="M-103.27,990.835l495.143,31.763l-275.785-83.043L-103.27,990.835z"/>
	<path fill="#757575" stroke="#757575" d="M116.088,939.555l275.785,83.043l-195.342-92.602L116.088,939.555z"/>
	<path fill="#4D4D4D" stroke="#4D4D4D" d="M391.873,1022.598l687.535,3.684l-417.694-55.829L391.873,1022.598z"/>
	<path fill="#616161" stroke="#616161" d="M391.873,1022.598l269.841-52.146l-145.614-8.98L391.873,1022.598z"/>
	<path fill="#414141" stroke="#414141" d="M661.714,970.452l417.694,55.829l-313.197-59.511L661.714,970.452z"/>
	<path fill="#383838" stroke="#383838" d="M766.211,966.771l313.197,59.511L937.751,975.8L766.211,966.771z"/>
	<path fill="#090909" stroke="#090909" d="M1079.408,1026.281l472.498-4.452l-105.994-22.696L1079.408,1026.281z"/>
	<path fill="#151515" stroke="#151515" d="M1079.408,1026.281l366.504-27.148l-197.997-70.055L1079.408,1026.281z"/>
</g>
</svg>
