<svg width="1461" height="861" xmlns="http://www.w3.org/2000/svg"><g><path d="M-111.44261472858489,-100.59258352965117L-103.26992193236947,990.8351171202958L-91.06066513806581,860.8609790448099Z" fill="#bcbcbc" stroke="#bcbcbc" fill-opacity="1" stroke-opacity="1"/><path d="M-111.44261472858489,-100.59258352965117L-91.06066513806581,860.8609790448099L-75.01243949867785,681.0755076259375Z" fill="#d0d0d0" stroke="#d0d0d0" fill-opacity="1" stroke-opacity="1"/><path d="M-111.44261472858489,-100.59258352965117L-75.01243949867785,681.0755076259375L-51.80948722176254,317.8129503875971Z" fill="#f4f4f4" stroke="#f4f4f4" fill-opacity="1" stroke-opacity="1"/><path d="M-111.44261472858489,-100.59258352965117L-51.80948722176254,317.8129503875971L-49.34232962317765,232.45992028154433Z" fill="#ffffff" stroke="#ffffff" fill-opacity="1" stroke-opacity="1"/><path d="M-111.44261472858489,-100.59258352965117L-49.34232962317765,232.45992028154433L-23.114041462540627,63.94797172397375Z" fill="#ffffff" stroke="#ffffff" fill-opacity="1" stroke-opacity="1"/><path d="M-111.44261472858489,-100.59258352965117L-23.114041462540627,63.94797172397375L67.0512214768678,-23.786860182881355Z" fill="#ffffff" stroke="#ffffff" fill-opacity="1" stroke-opacity="1"/><path d="M-111.44261472858489,-100.59258352965117L67.0512214768678,-23.786860182881355L170.43146001175046,-105.00525092706084Z" fill="#fefefe" stroke="#fefefe" fill-opacity="1" stroke-opacity="1"/><path d="M-111.44261472858489,-100.59258352965117L170.43146001175046,-105.00525092706084L366.1394088808447,-127.53108219243586Z" fill="#f9f9f9" stroke="#f9f9f9" fill-opacity="1" stroke-opacity="1"/><path d="M67.0512214768678,-23.786860182881355L-23.114041462540627,63.94797172397375L108.50300545804203,45.45130846090615Z" fill="#fdfdfd" stroke="#fdfdfd" fill-opacity="1" stroke-opacity="1"/><path d="M67.0512214768678,-23.786860182881355L108.50300545804203,45.45130846090615L170.43146001175046,-105.00525092706084Z" fill="#fbfbfb" stroke="#fbfbfb" fill-opacity="1" stroke-opacity="1"/><path d="M170.43146001175046,-105.00525092706084L108.50300545804203,45.45130846090615L171.9512893538922,73.33294725045562Z" fill="#f9f9f9" stroke="#f9f9f9" fill-opacity="1" stroke-opacity="1"/><path d="M170.43146001175046,-105.00525092706084L171.9512893538922,73.33294725045562L366.1394088808447,-127.53108219243586Z" fill="#f4f4f4" stroke="#f4f4f4" fill-opacity="1" stroke-opacity="1"/><path d="M366.1394088808447,-127.53108219243586L171.9512893538922,73.33294725045562L375.91523207724094,107.23734380677342Z" fill="#f0f0f0" stroke="#f0f0f0" fill-opacity="1" stroke-opacity="1"/><path d="M366.1394088808447,-127.53108219243586L375.91523207724094,107.23734380677342L517.9595272801816,-115.7020176295191Z" fill="#e8e8e8" stroke="#e8e8e8" fill-opacity="1" stroke-opacity="1"/><path d="M366.1394088808447,-127.53108219243586L517.9595272801816,-115.7020176295191L795.703100413084,-124.71349828876555Z" fill="#dddddd" stroke="#dddddd" fill-opacity="1" stroke-opacity="1"/><path d="M517.9595272801816,-115.7020176295191L375.91523207724094,107.23734380677342L505.254073580727,120.34773350693285Z" fill="#e4e4e4" stroke="#e4e4e4" fill-opacity="1" stroke-opacity="1"/><path d="M517.9595272801816,-115.7020176295191L505.254073580727,120.34773350693285L694.9487352278084,45.21899063140154Z" fill="#dcdcdc" stroke="#dcdcdc" fill-opacity="1" stroke-opacity="1"/><path d="M517.9595272801816,-115.7020176295191L694.9487352278084,45.21899063140154L692.7161075547338,-115.1268773060292Z" fill="#d5d5d5" stroke="#d5d5d5" fill-opacity="1" stroke-opacity="1"/><path d="M517.9595272801816,-115.7020176295191L692.7161075547338,-115.1268773060292L795.703100413084,-124.71349828876555Z" fill="#d1d1d1" stroke="#d1d1d1" fill-opacity="1" stroke-opacity="1"/><path d="M692.7161075547338,-115.1268773060292L694.9487352278084,45.21899063140154L795.703100413084,-124.71349828876555Z" fill="#cbcbcb" stroke="#cbcbcb" fill-opacity="1" stroke-opacity="1"/><path d="M795.703100413084,-124.71349828876555L694.9487352278084,45.21899063140154L838.8975701294839,82.73203834891319Z" fill="#c6c6c6" stroke="#c6c6c6" fill-opacity="1" stroke-opacity="1"/><path d="M795.703100413084,-124.71349828876555L838.8975701294839,82.73203834891319L941.9897884782404,-28.50184000097215Z" fill="#bebebe" stroke="#bebebe" fill-opacity="1" stroke-opacity="1"/><path d="M795.703100413084,-124.71349828876555L941.9897884782404,-28.50184000097215L1066.8735123518854,-76.88875146210194Z" fill="#b7b7b7" stroke="#b7b7b7" fill-opacity="1" stroke-opacity="1"/><path d="M795.703100413084,-124.71349828876555L1066.8735123518854,-76.88875146210194L1305.9760289546102,-75.22340110503137Z" fill="#acacac" stroke="#acacac" fill-opacity="1" stroke-opacity="1"/><path d="M795.703100413084,-124.71349828876555L1305.9760289546102,-75.22340110503137L1533.989517353475,-68.19327967241406Z" fill="#9a9a9a" stroke="#9a9a9a" fill-opacity="1" stroke-opacity="1"/><path d="M941.9897884782404,-28.50184000097215L838.8975701294839,82.73203834891319L1018.9206474646926,78.15539530478418Z" fill="#b7b7b7" stroke="#b7b7b7" fill-opacity="1" stroke-opacity="1"/><path d="M941.9897884782404,-28.50184000097215L1018.9206474646926,78.15539530478418L1066.8735123518854,-76.88875146210194Z" fill="#b1b1b1" stroke="#b1b1b1" fill-opacity="1" stroke-opacity="1"/><path d="M1066.8735123518854,-76.88875146210194L1018.9206474646926,78.15539530478418L1083.5954582691193,87.35615724697709Z" fill="#acacac" stroke="#acacac" fill-opacity="1" stroke-opacity="1"/><path d="M1066.8735123518854,-76.88875146210194L1083.5954582691193,87.35615724697709L1220.587819358334,118.16489403136075Z" fill="#a5a5a5" stroke="#a5a5a5" fill-opacity="1" stroke-opacity="1"/><path d="M1066.8735123518854,-76.88875146210194L1220.587819358334,118.16489403136075L1305.9760289546102,-75.22340110503137Z" fill="#9c9c9c" stroke="#9c9c9c" fill-opacity="1" stroke-opacity="1"/><path d="M1305.9760289546102,-75.22340110503137L1220.587819358334,118.16489403136075L1392.3175278492272,16.53101110830903Z" fill="#8f8f8f" stroke="#8f8f8f" fill-opacity="1" stroke-opacity="1"/><path d="M1305.9760289546102,-75.22340110503137L1392.3175278492272,16.53101110830903L1414.927364839241,-68.99334942921996Z" fill="#878787" stroke="#878787" fill-opacity="1" stroke-opacity="1"/><path d="M1305.9760289546102,-75.22340110503137L1414.927364839241,-68.99334942921996L1533.989517353475,-68.19327967241406Z" fill="#818181" stroke="#818181" fill-opacity="1" stroke-opacity="1"/><path d="M1414.927364839241,-68.99334942921996L1392.3175278492272,16.53101110830903L1533.989517353475,-68.19327967241406Z" fill="#808080" stroke="#808080" fill-opacity="1" stroke-opacity="1"/><path d="M1533.989517353475,-68.19327967241406L1392.3175278492272,16.53101110830903L1534.2264094389975,93.4811548423022Z" fill="#808080" stroke="#808080" fill-opacity="1" stroke-opacity="1"/><path d="M1533.989517353475,-68.19327967241406L1534.2264094389975,93.4811548423022L1619.6865595132113,466.03451745584607Z" fill="#808080" stroke="#808080" fill-opacity="1" stroke-opacity="1"/><path d="M-23.114041462540627,63.94797172397375L-49.34232962317765,232.45992028154433L90.28865346685052,231.85085831210017Z" fill="#ffffff" stroke="#ffffff" fill-opacity="1" stroke-opacity="1"/><path d="M-23.114041462540627,63.94797172397375L90.28865346685052,231.85085831210017L108.50300545804203,45.45130846090615Z" fill="#fdfdfd" stroke="#fdfdfd" fill-opacity="1" stroke-opacity="1"/><path d="M108.50300545804203,45.45130846090615L90.28865346685052,231.85085831210017L171.9512893538922,73.33294725045562Z" fill="#fafafa" stroke="#fafafa" fill-opacity="1" stroke-opacity="1"/><path d="M171.9512893538922,73.33294725045562L90.28865346685052,231.85085831210017L255.59620407409966,227.76935278438032Z" fill="#f8f8f8" stroke="#f8f8f8" fill-opacity="1" stroke-opacity="1"/><path d="M171.9512893538922,73.33294725045562L255.59620407409966,227.76935278438032L375.91523207724094,107.23734380677342Z" fill="#f2f2f2" stroke="#f2f2f2" fill-opacity="1" stroke-opacity="1"/><path d="M375.91523207724094,107.23734380677342L255.59620407409966,227.76935278438032L350.06089037284255,259.33789380826056Z" fill="#efefef" stroke="#efefef" fill-opacity="1" stroke-opacity="1"/><path d="M375.91523207724094,107.23734380677342L350.06089037284255,259.33789380826056L508.8196829985827,255.33691948279738Z" fill="#e9e9e9" stroke="#e9e9e9" fill-opacity="1" stroke-opacity="1"/><path d="M375.91523207724094,107.23734380677342L508.8196829985827,255.33691948279738L505.254073580727,120.34773350693285Z" fill="#e5e5e5" stroke="#e5e5e5" fill-opacity="1" stroke-opacity="1"/><path d="M505.254073580727,120.34773350693285L508.8196829985827,255.33691948279738L633.6486613098532,255.24265743792057Z" fill="#dedede" stroke="#dedede" fill-opacity="1" stroke-opacity="1"/><path d="M505.254073580727,120.34773350693285L633.6486613098532,255.24265743792057L694.9487352278084,45.21899063140154Z" fill="#d7d7d7" stroke="#d7d7d7" fill-opacity="1" stroke-opacity="1"/><path d="M694.9487352278084,45.21899063140154L633.6486613098532,255.24265743792057L836.7696861270815,250.27013665996492Z" fill="#cccccc" stroke="#cccccc" fill-opacity="1" stroke-opacity="1"/><path d="M694.9487352278084,45.21899063140154L836.7696861270815,250.27013665996492L838.8975701294839,82.73203834891319Z" fill="#c5c5c5" stroke="#c5c5c5" fill-opacity="1" stroke-opacity="1"/><path d="M838.8975701294839,82.73203834891319L836.7696861270815,250.27013665996492L967.3104684613645,241.55294643715024Z" fill="#bcbcbc" stroke="#bcbcbc" fill-opacity="1" stroke-opacity="1"/><path d="M838.8975701294839,82.73203834891319L967.3104684613645,241.55294643715024L1018.9206474646926,78.15539530478418Z" fill="#b7b7b7" stroke="#b7b7b7" fill-opacity="1" stroke-opacity="1"/><path d="M1018.9206474646926,78.15539530478418L967.3104684613645,241.55294643715024L1087.7010721340775,255.86077108047903Z" fill="#afafaf" stroke="#afafaf" fill-opacity="1" stroke-opacity="1"/><path d="M1018.9206474646926,78.15539530478418L1087.7010721340775,255.86077108047903L1083.5954582691193,87.35615724697709Z" fill="#acacac" stroke="#acacac" fill-opacity="1" stroke-opacity="1"/><path d="M1083.5954582691193,87.35615724697709L1087.7010721340775,255.86077108047903L1220.587819358334,118.16489403136075Z" fill="#a4a4a4" stroke="#a4a4a4" fill-opacity="1" stroke-opacity="1"/><path d="M1220.587819358334,118.16489403136075L1087.7010721340775,255.86077108047903L1221.7318657692522,322.00724001042545Z" fill="#9c9c9c" stroke="#9c9c9c" fill-opacity="1" stroke-opacity="1"/><path d="M1220.587819358334,118.16489403136075L1221.7318657692522,322.00724001042545L1316.9940078724176,195.8814312145114Z" fill="#959595" stroke="#959595" fill-opacity="1" stroke-opacity="1"/><path d="M1220.587819358334,118.16489403136075L1316.9940078724176,195.8814312145114L1392.3175278492272,16.53101110830903Z" fill="#8e8e8e" stroke="#8e8e8e" fill-opacity="1" stroke-opacity="1"/><path d="M1392.3175278492272,16.53101110830903L1316.9940078724176,195.8814312145114L1534.2264094389975,93.4811548423022Z" fill="#818181" stroke="#818181" fill-opacity="1" stroke-opacity="1"/><path d="M1534.2264094389975,93.4811548423022L1316.9940078724176,195.8814312145114L1437.1512932796031,266.6206294577569Z" fill="#808080" stroke="#808080" fill-opacity="1" stroke-opacity="1"/><path d="M1534.2264094389975,93.4811548423022L1437.1512932796031,266.6206294577569L1555.0562727916986,259.4056594837457Z" fill="#808080" stroke="#808080" fill-opacity="1" stroke-opacity="1"/><path d="M1534.2264094389975,93.4811548423022L1555.0562727916986,259.4056594837457L1619.6865595132113,466.03451745584607Z" fill="#787878" stroke="#787878" fill-opacity="1" stroke-opacity="1"/><path d="M-49.34232962317765,232.45992028154433L-51.80948722176254,317.8129503875971L90.28865346685052,231.85085831210017Z" fill="#f9f9f9" stroke="#f9f9f9" fill-opacity="1" stroke-opacity="1"/><path d="M90.28865346685052,231.85085831210017L-51.80948722176254,317.8129503875971L71.0090153105557,395.4647602234036Z" fill="#f0f0f0" stroke="#f0f0f0" fill-opacity="1" stroke-opacity="1"/><path d="M90.28865346685052,231.85085831210017L71.0090153105557,395.4647602234036L256.8614829238504,341.63903393782675Z" fill="#ebebeb" stroke="#ebebeb" fill-opacity="1" stroke-opacity="1"/><path d="M90.28865346685052,231.85085831210017L256.8614829238504,341.63903393782675L255.59620407409966,227.76935278438032Z" fill="#f0f0f0" stroke="#f0f0f0" fill-opacity="1" stroke-opacity="1"/><path d="M255.59620407409966,227.76935278438032L256.8614829238504,341.63903393782675L350.06089037284255,259.33789380826056Z" fill="#e9e9e9" stroke="#e9e9e9" fill-opacity="1" stroke-opacity="1"/><path d="M350.06089037284255,259.33789380826056L256.8614829238504,341.63903393782675L380.14306305907667,374.91372532211244Z" fill="#dfdfdf" stroke="#dfdfdf" fill-opacity="1" stroke-opacity="1"/><path d="M350.06089037284255,259.33789380826056L380.14306305907667,374.91372532211244L508.8196829985827,255.33691948279738Z" fill="#dddddd" stroke="#dddddd" fill-opacity="1" stroke-opacity="1"/><path d="M508.8196829985827,255.33691948279738L380.14306305907667,374.91372532211244L497.13762380182743,408.19866416975856Z" fill="#d1d1d1" stroke="#d1d1d1" fill-opacity="1" stroke-opacity="1"/><path d="M508.8196829985827,255.33691948279738L497.13762380182743,408.19866416975856L633.6486613098532,255.24265743792057Z" fill="#d2d2d2" stroke="#d2d2d2" fill-opacity="1" stroke-opacity="1"/><path d="M633.6486613098532,255.24265743792057L497.13762380182743,408.19866416975856L693.1330524198711,424.0995282679796Z" fill="#c0c0c0" stroke="#c0c0c0" fill-opacity="1" stroke-opacity="1"/><path d="M633.6486613098532,255.24265743792057L693.1330524198711,424.0995282679796L772.7195165399462,374.5241921301931Z" fill="#b9b9b9" stroke="#b9b9b9" fill-opacity="1" stroke-opacity="1"/><path d="M633.6486613098532,255.24265743792057L772.7195165399462,374.5241921301931L836.7696861270815,250.27013665996492Z" fill="#bebebe" stroke="#bebebe" fill-opacity="1" stroke-opacity="1"/><path d="M836.7696861270815,250.27013665996492L772.7195165399462,374.5241921301931L917.8474464453757,400.12925907969475Z" fill="#adadad" stroke="#adadad" fill-opacity="1" stroke-opacity="1"/><path d="M836.7696861270815,250.27013665996492L917.8474464453757,400.12925907969475L967.3104684613645,241.55294643715024Z" fill="#aeaeae" stroke="#aeaeae" fill-opacity="1" stroke-opacity="1"/><path d="M967.3104684613645,241.55294643715024L917.8474464453757,400.12925907969475L1087.7010721340775,255.86077108047903Z" fill="#a7a7a7" stroke="#a7a7a7" fill-opacity="1" stroke-opacity="1"/><path d="M1087.7010721340775,255.86077108047903L917.8474464453757,400.12925907969475L1161.7607681360096,358.85526646859944Z" fill="#9a9a9a" stroke="#9a9a9a" fill-opacity="1" stroke-opacity="1"/><path d="M1087.7010721340775,255.86077108047903L1161.7607681360096,358.85526646859944L1221.7318657692522,322.00724001042545Z" fill="#949494" stroke="#949494" fill-opacity="1" stroke-opacity="1"/><path d="M1316.9940078724176,195.8814312145114L1221.7318657692522,322.00724001042545L1437.1512932796031,266.6206294577569Z" fill="#868686" stroke="#868686" fill-opacity="1" stroke-opacity="1"/><path d="M1437.1512932796031,266.6206294577569L1221.7318657692522,322.00724001042545L1460.4849492385983,416.24483585357666Z" fill="#757575" stroke="#757575" fill-opacity="1" stroke-opacity="1"/><path d="M1437.1512932796031,266.6206294577569L1460.4849492385983,416.24483585357666L1542.4954045191407,321.50633809156716Z" fill="#6e6e6e" stroke="#6e6e6e" fill-opacity="1" stroke-opacity="1"/><path d="M1437.1512932796031,266.6206294577569L1542.4954045191407,321.50633809156716L1555.0562727916986,259.4056594837457Z" fill="#767676" stroke="#767676" fill-opacity="1" stroke-opacity="1"/><path d="M1555.0562727916986,259.4056594837457L1542.4954045191407,321.50633809156716L1619.6865595132113,466.03451745584607Z" fill="#6b6b6b" stroke="#6b6b6b" fill-opacity="1" stroke-opacity="1"/><path d="M-51.80948722176254,317.8129503875971L-75.01243949867785,681.0755076259375L-47.993815541267395,538.1155273597687Z" fill="#c9c9c9" stroke="#c9c9c9" fill-opacity="1" stroke-opacity="1"/><path d="M-51.80948722176254,317.8129503875971L-47.993815541267395,538.1155273597687L71.0090153105557,395.4647602234036Z" fill="#dcdcdc" stroke="#dcdcdc" fill-opacity="1" stroke-opacity="1"/><path d="M71.0090153105557,395.4647602234036L-47.993815541267395,538.1155273597687L91.63131379522383,578.7729713693261Z" fill="#c9c9c9" stroke="#c9c9c9" fill-opacity="1" stroke-opacity="1"/><path d="M71.0090153105557,395.4647602234036L91.63131379522383,578.7729713693261L272.77502979151905,531.898481156677Z" fill="#c5c5c5" stroke="#c5c5c5" fill-opacity="1" stroke-opacity="1"/><path d="M71.0090153105557,395.4647602234036L272.77502979151905,531.898481156677L256.8614829238504,341.63903393782675Z" fill="#d2d2d2" stroke="#d2d2d2" fill-opacity="1" stroke-opacity="1"/><path d="M256.8614829238504,341.63903393782675L272.77502979151905,531.898481156677L324.585444862023,527.3395648598671Z" fill="#c4c4c4" stroke="#c4c4c4" fill-opacity="1" stroke-opacity="1"/><path d="M256.8614829238504,341.63903393782675L324.585444862023,527.3395648598671L380.14306305907667,374.91372532211244Z" fill="#cdcdcd" stroke="#cdcdcd" fill-opacity="1" stroke-opacity="1"/><path d="M380.14306305907667,374.91372532211244L324.585444862023,527.3395648598671L497.13762380182743,408.19866416975856Z" fill="#c3c3c3" stroke="#c3c3c3" fill-opacity="1" stroke-opacity="1"/><path d="M497.13762380182743,408.19866416975856L324.585444862023,527.3395648598671L534.6396468579769,509.8321149777621Z" fill="#b6b6b6" stroke="#b6b6b6" fill-opacity="1" stroke-opacity="1"/><path d="M497.13762380182743,408.19866416975856L534.6396468579769,509.8321149777621L693.1330524198711,424.0995282679796Z" fill="#b2b2b2" stroke="#b2b2b2" fill-opacity="1" stroke-opacity="1"/><path d="M693.1330524198711,424.0995282679796L534.6396468579769,509.8321149777621L721.2014724500477,571.5138929430395Z" fill="#9f9f9f" stroke="#9f9f9f" fill-opacity="1" stroke-opacity="1"/><path d="M693.1330524198711,424.0995282679796L721.2014724500477,571.5138929430395L816.6310858447105,494.2398712411523Z" fill="#969696" stroke="#969696" fill-opacity="1" stroke-opacity="1"/><path d="M693.1330524198711,424.0995282679796L816.6310858447105,494.2398712411523L772.7195165399462,374.5241921301931Z" fill="#a2a2a2" stroke="#a2a2a2" fill-opacity="1" stroke-opacity="1"/><path d="M772.7195165399462,374.5241921301931L816.6310858447105,494.2398712411523L917.8474464453757,400.12925907969475Z" fill="#9c9c9c" stroke="#9c9c9c" fill-opacity="1" stroke-opacity="1"/><path d="M917.8474464453757,400.12925907969475L816.6310858447105,494.2398712411523L960.5093705747277,579.7156193386763Z" fill="#898989" stroke="#898989" fill-opacity="1" stroke-opacity="1"/><path d="M917.8474464453757,400.12925907969475L960.5093705747277,579.7156193386763L1115.4119417723268,532.9242824390531Z" fill="#7d7d7d" stroke="#7d7d7d" fill-opacity="1" stroke-opacity="1"/><path d="M917.8474464453757,400.12925907969475L1115.4119417723268,532.9242824390531L1161.7607681360096,358.85526646859944Z" fill="#868686" stroke="#868686" fill-opacity="1" stroke-opacity="1"/><path d="M1161.7607681360096,358.85526646859944L1115.4119417723268,532.9242824390531L1225.552668850869,467.36255639232695Z" fill="#757575" stroke="#757575" fill-opacity="1" stroke-opacity="1"/><path d="M1161.7607681360096,358.85526646859944L1225.552668850869,467.36255639232695L1221.7318657692522,322.00724001042545Z" fill="#808080" stroke="#808080" fill-opacity="1" stroke-opacity="1"/><path d="M1221.7318657692522,322.00724001042545L1225.552668850869,467.36255639232695L1460.4849492385983,416.24483585357666Z" fill="#6f6f6f" stroke="#6f6f6f" fill-opacity="1" stroke-opacity="1"/><path d="M1460.4849492385983,416.24483585357666L1225.552668850869,467.36255639232695L1449.875269588083,504.3031073268503Z" fill="#595959" stroke="#595959" fill-opacity="1" stroke-opacity="1"/><path d="M1460.4849492385983,416.24483585357666L1449.875269588083,504.3031073268503L1619.6865595132113,466.03451745584607Z" fill="#545454" stroke="#545454" fill-opacity="1" stroke-opacity="1"/><path d="M1460.4849492385983,416.24483585357666L1619.6865595132113,466.03451745584607L1542.4954045191407,321.50633809156716Z" fill="#606060" stroke="#606060" fill-opacity="1" stroke-opacity="1"/><path d="M-47.993815541267395,538.1155273597687L-75.01243949867785,681.0755076259375L91.63131379522383,578.7729713693261Z" fill="#b9b9b9" stroke="#b9b9b9" fill-opacity="1" stroke-opacity="1"/><path d="M91.63131379522383,578.7729713693261L-75.01243949867785,681.0755076259375L108.23094310238957,704.856440294534Z" fill="#adadad" stroke="#adadad" fill-opacity="1" stroke-opacity="1"/><path d="M91.63131379522383,578.7729713693261L108.23094310238957,704.856440294534L277.7442330401391,642.581540895626Z" fill="#ababab" stroke="#ababab" fill-opacity="1" stroke-opacity="1"/><path d="M91.63131379522383,578.7729713693261L277.7442330401391,642.581540895626L272.77502979151905,531.898481156677Z" fill="#b2b2b2" stroke="#b2b2b2" fill-opacity="1" stroke-opacity="1"/><path d="M272.77502979151905,531.898481156677L277.7442330401391,642.581540895626L324.585444862023,527.3395648598671Z" fill="#b0b0b0" stroke="#b0b0b0" fill-opacity="1" stroke-opacity="1"/><path d="M324.585444862023,527.3395648598671L277.7442330401391,642.581540895626L337.27873558178544,676.6695563681424Z" fill="#a7a7a7" stroke="#a7a7a7" fill-opacity="1" stroke-opacity="1"/><path d="M324.585444862023,527.3395648598671L337.27873558178544,676.6695563681424L532.2354230191559,648.1592314504087Z" fill="#a0a0a0" stroke="#a0a0a0" fill-opacity="1" stroke-opacity="1"/><path d="M324.585444862023,527.3395648598671L532.2354230191559,648.1592314504087L534.6396468579769,509.8321149777621Z" fill="#a5a5a5" stroke="#a5a5a5" fill-opacity="1" stroke-opacity="1"/><path d="M534.6396468579769,509.8321149777621L532.2354230191559,648.1592314504087L721.2014724500477,571.5138929430395Z" fill="#979797" stroke="#979797" fill-opacity="1" stroke-opacity="1"/><path d="M721.2014724500477,571.5138929430395L532.2354230191559,648.1592314504087L660.2845066320151,695.3686794172972Z" fill="#888888" stroke="#888888" fill-opacity="1" stroke-opacity="1"/><path d="M721.2014724500477,571.5138929430395L660.2845066320151,695.3686794172972L794.0109165385365,686.1653252877295Z" fill="#7b7b7b" stroke="#7b7b7b" fill-opacity="1" stroke-opacity="1"/><path d="M721.2014724500477,571.5138929430395L794.0109165385365,686.1653252877295L816.6310858447105,494.2398712411523Z" fill="#838383" stroke="#838383" fill-opacity="1" stroke-opacity="1"/><path d="M816.6310858447105,494.2398712411523L794.0109165385365,686.1653252877295L960.5093705747277,579.7156193386763Z" fill="#7b7b7b" stroke="#7b7b7b" fill-opacity="1" stroke-opacity="1"/><path d="M960.5093705747277,579.7156193386763L794.0109165385365,686.1653252877295L981.7726239189506,705.714152790606Z" fill="#686868" stroke="#686868" fill-opacity="1" stroke-opacity="1"/><path d="M960.5093705747277,579.7156193386763L981.7726239189506,705.714152790606L1142.573646074161,684.9947859160602Z" fill="#5d5d5d" stroke="#5d5d5d" fill-opacity="1" stroke-opacity="1"/><path d="M960.5093705747277,579.7156193386763L1142.573646074161,684.9947859160602L1115.4119417723268,532.9242824390531Z" fill="#656565" stroke="#656565" fill-opacity="1" stroke-opacity="1"/><path d="M1115.4119417723268,532.9242824390531L1142.573646074161,684.9947859160602L1275.10060002096,701.2939802929759Z" fill="#515151" stroke="#515151" fill-opacity="1" stroke-opacity="1"/><path d="M1115.4119417723268,532.9242824390531L1275.10060002096,701.2939802929759L1225.552668850869,467.36255639232695Z" fill="#5b5b5b" stroke="#5b5b5b" fill-opacity="1" stroke-opacity="1"/><path d="M1225.552668850869,467.36255639232695L1275.10060002096,701.2939802929759L1431.0201173555106,638.3417045418173Z" fill="#484848" stroke="#484848" fill-opacity="1" stroke-opacity="1"/><path d="M1225.552668850869,467.36255639232695L1431.0201173555106,638.3417045418173L1449.875269588083,504.3031073268503Z" fill="#4d4d4d" stroke="#4d4d4d" fill-opacity="1" stroke-opacity="1"/><path d="M1449.875269588083,504.3031073268503L1431.0201173555106,638.3417045418173L1553.526922389865,675.9717823751271Z" fill="#383838" stroke="#383838" fill-opacity="1" stroke-opacity="1"/><path d="M1449.875269588083,504.3031073268503L1553.526922389865,675.9717823751271L1619.6865595132113,466.03451745584607Z" fill="#434343" stroke="#434343" fill-opacity="1" stroke-opacity="1"/><path d="M1619.6865595132113,466.03451745584607L1553.526922389865,675.9717823751271L1549.7499159537256,839.1314292512834Z" fill="#2e2e2e" stroke="#2e2e2e" fill-opacity="1" stroke-opacity="1"/><path d="M1619.6865595132113,466.03451745584607L1549.7499159537256,839.1314292512834L1551.9063158612698,1021.8287031445652Z" fill="#111111" stroke="#111111" fill-opacity="1" stroke-opacity="1"/><path d="M-75.01243949867785,681.0755076259375L-91.06066513806581,860.8609790448099L25.609285924583673,852.3765769600868Z" fill="#8b8b8b" stroke="#8b8b8b" fill-opacity="1" stroke-opacity="1"/><path d="M-75.01243949867785,681.0755076259375L25.609285924583673,852.3765769600868L108.23094310238957,704.856440294534Z" fill="#979797" stroke="#979797" fill-opacity="1" stroke-opacity="1"/><path d="M108.23094310238957,704.856440294534L25.609285924583673,852.3765769600868L191.4083440694958,813.0751046910882Z" fill="#888888" stroke="#888888" fill-opacity="1" stroke-opacity="1"/><path d="M108.23094310238957,704.856440294534L191.4083440694958,813.0751046910882L277.7442330401391,642.581540895626Z" fill="#969696" stroke="#969696" fill-opacity="1" stroke-opacity="1"/><path d="M277.7442330401391,642.581540895626L191.4083440694958,813.0751046910882L337.27873558178544,676.6695563681424Z" fill="#939393" stroke="#939393" fill-opacity="1" stroke-opacity="1"/><path d="M337.27873558178544,676.6695563681424L191.4083440694958,813.0751046910882L384.79398644529283,856.4005857054144Z" fill="#808080" stroke="#808080" fill-opacity="1" stroke-opacity="1"/><path d="M337.27873558178544,676.6695563681424L384.79398644529283,856.4005857054144L532.2354230191559,648.1592314504087Z" fill="#858585" stroke="#858585" fill-opacity="1" stroke-opacity="1"/><path d="M532.2354230191559,648.1592314504087L384.79398644529283,856.4005857054144L577.0300380885601,824.0552042238414Z" fill="#737373" stroke="#737373" fill-opacity="1" stroke-opacity="1"/><path d="M532.2354230191559,648.1592314504087L577.0300380885601,824.0552042238414L660.2845066320151,695.3686794172972Z" fill="#787878" stroke="#787878" fill-opacity="1" stroke-opacity="1"/><path d="M660.2845066320151,695.3686794172972L577.0300380885601,824.0552042238414L721.4638307411224,860.0964775588363Z" fill="#606060" stroke="#606060" fill-opacity="1" stroke-opacity="1"/><path d="M660.2845066320151,695.3686794172972L721.4638307411224,860.0964775588363L794.0109165385365,686.1653252877295Z" fill="#636363" stroke="#636363" fill-opacity="1" stroke-opacity="1"/><path d="M794.0109165385365,686.1653252877295L721.4638307411224,860.0964775588363L880.6978887598962,883.1881650164723Z" fill="#4d4d4d" stroke="#4d4d4d" fill-opacity="1" stroke-opacity="1"/><path d="M794.0109165385365,686.1653252877295L880.6978887598962,883.1881650164723L942.9842869006097,829.7467403300107Z" fill="#484848" stroke="#484848" fill-opacity="1" stroke-opacity="1"/><path d="M794.0109165385365,686.1653252877295L942.9842869006097,829.7467403300107L981.7726239189506,705.714152790606Z" fill="#535353" stroke="#535353" fill-opacity="1" stroke-opacity="1"/><path d="M981.7726239189506,705.714152790606L942.9842869006097,829.7467403300107L1098.174203177914,837.2616919968277Z" fill="#3e3e3e" stroke="#3e3e3e" fill-opacity="1" stroke-opacity="1"/><path d="M981.7726239189506,705.714152790606L1098.174203177914,837.2616919968277L1142.573646074161,684.9947859160602Z" fill="#444444" stroke="#444444" fill-opacity="1" stroke-opacity="1"/><path d="M1142.573646074161,684.9947859160602L1098.174203177914,837.2616919968277L1284.7924016229808,829.6845634840429Z" fill="#2e2e2e" stroke="#2e2e2e" fill-opacity="1" stroke-opacity="1"/><path d="M1142.573646074161,684.9947859160602L1284.7924016229808,829.6845634840429L1275.10060002096,701.2939802929759Z" fill="#323232" stroke="#323232" fill-opacity="1" stroke-opacity="1"/><path d="M1275.10060002096,701.2939802929759L1284.7924016229808,829.6845634840429L1472.2288938704878,807.4705831613392Z" fill="#1a1a1a" stroke="#1a1a1a" fill-opacity="1" stroke-opacity="1"/><path d="M1275.10060002096,701.2939802929759L1472.2288938704878,807.4705831613392L1431.0201173555106,638.3417045418173Z" fill="#242424" stroke="#242424" fill-opacity="1" stroke-opacity="1"/><path d="M1431.0201173555106,638.3417045418173L1472.2288938704878,807.4705831613392L1553.526922389865,675.9717823751271Z" fill="#222222" stroke="#222222" fill-opacity="1" stroke-opacity="1"/><path d="M1553.526922389865,675.9717823751271L1472.2288938704878,807.4705831613392L1549.7499159537256,839.1314292512834Z" fill="#111111" stroke="#111111" fill-opacity="1" stroke-opacity="1"/><path d="M-91.06066513806581,860.8609790448099L-103.26992193236947,990.8351171202958L25.609285924583673,852.3765769600868Z" fill="#808080" stroke="#808080" fill-opacity="1" stroke-opacity="1"/><path d="M25.609285924583673,852.3765769600868L-103.26992193236947,990.8351171202958L116.0885238647461,939.5551036577672Z" fill="#7f7f7f" stroke="#7f7f7f" fill-opacity="1" stroke-opacity="1"/><path d="M25.609285924583673,852.3765769600868L116.0885238647461,939.5551036577672L191.4083440694958,813.0751046910882Z" fill="#7b7b7b" stroke="#7b7b7b" fill-opacity="1" stroke-opacity="1"/><path d="M191.4083440694958,813.0751046910882L116.0885238647461,939.5551036577672L196.53055110946298,929.9963401537389Z" fill="#797979" stroke="#797979" fill-opacity="1" stroke-opacity="1"/><path d="M191.4083440694958,813.0751046910882L196.53055110946298,929.9963401537389L384.79398644529283,856.4005857054144Z" fill="#747474" stroke="#747474" fill-opacity="1" stroke-opacity="1"/><path d="M384.79398644529283,856.4005857054144L196.53055110946298,929.9963401537389L391.87351958826184,1022.597319893539Z" fill="#6f6f6f" stroke="#6f6f6f" fill-opacity="1" stroke-opacity="1"/><path d="M384.79398644529283,856.4005857054144L391.87351958826184,1022.597319893539L516.099371323362,961.4718184433877Z" fill="#686868" stroke="#686868" fill-opacity="1" stroke-opacity="1"/><path d="M384.79398644529283,856.4005857054144L516.099371323362,961.4718184433877L577.0300380885601,824.0552042238414Z" fill="#636363" stroke="#636363" fill-opacity="1" stroke-opacity="1"/><path d="M577.0300380885601,824.0552042238414L516.099371323362,961.4718184433877L661.7140892799944,970.4525840934366Z" fill="#5b5b5b" stroke="#5b5b5b" fill-opacity="1" stroke-opacity="1"/><path d="M577.0300380885601,824.0552042238414L661.7140892799944,970.4525840934366L721.4638307411224,860.0964775588363Z" fill="#535353" stroke="#535353" fill-opacity="1" stroke-opacity="1"/><path d="M721.4638307411224,860.0964775588363L661.7140892799944,970.4525840934366L766.2109921406955,966.7702889163047Z" fill="#4d4d4d" stroke="#4d4d4d" fill-opacity="1" stroke-opacity="1"/><path d="M721.4638307411224,860.0964775588363L766.2109921406955,966.7702889163047L880.6978887598962,883.1881650164723Z" fill="#464646" stroke="#464646" fill-opacity="1" stroke-opacity="1"/><path d="M880.6978887598962,883.1881650164723L766.2109921406955,966.7702889163047L937.7510192524642,975.7997708860785Z" fill="#3f3f3f" stroke="#3f3f3f" fill-opacity="1" stroke-opacity="1"/><path d="M880.6978887598962,883.1881650164723L937.7510192524642,975.7997708860785L942.9842869006097,829.7467403300107Z" fill="#393939" stroke="#393939" fill-opacity="1" stroke-opacity="1"/><path d="M942.9842869006097,829.7467403300107L937.7510192524642,975.7997708860785L1098.174203177914,837.2616919968277Z" fill="#333333" stroke="#333333" fill-opacity="1" stroke-opacity="1"/><path d="M1098.174203177914,837.2616919968277L937.7510192524642,975.7997708860785L1079.4082030188292,1026.2814281042665Z" fill="#2e2e2e" stroke="#2e2e2e" fill-opacity="1" stroke-opacity="1"/><path d="M1098.174203177914,837.2616919968277L1079.4082030188292,1026.2814281042665L1247.9149968735874,929.0780387353152Z" fill="#242424" stroke="#242424" fill-opacity="1" stroke-opacity="1"/><path d="M1098.174203177914,837.2616919968277L1247.9149968735874,929.0780387353152L1284.7924016229808,829.6845634840429Z" fill="#1b1b1b" stroke="#1b1b1b" fill-opacity="1" stroke-opacity="1"/><path d="M1284.7924016229808,829.6845634840429L1247.9149968735874,929.0780387353152L1445.9118655510247,999.1326918359846Z" fill="#0d0d0d" stroke="#0d0d0d" fill-opacity="1" stroke-opacity="1"/><path d="M1284.7924016229808,829.6845634840429L1445.9118655510247,999.1326918359846L1472.2288938704878,807.4705831613392Z" fill="#040404" stroke="#040404" fill-opacity="1" stroke-opacity="1"/><path d="M1472.2288938704878,807.4705831613392L1445.9118655510247,999.1326918359846L1549.7499159537256,839.1314292512834Z" fill="#000000" stroke="#000000" fill-opacity="1" stroke-opacity="1"/><path d="M1549.7499159537256,839.1314292512834L1445.9118655510247,999.1326918359846L1551.9063158612698,1021.8287031445652Z" fill="#000000" stroke="#000000" fill-opacity="1" stroke-opacity="1"/><path d="M-103.26992193236947,990.8351171202958L391.87351958826184,1022.597319893539L116.0885238647461,939.5551036577672Z" fill="#7a7a7a" stroke="#7a7a7a" fill-opacity="1" stroke-opacity="1"/><path d="M116.0885238647461,939.5551036577672L391.87351958826184,1022.597319893539L196.53055110946298,929.9963401537389Z" fill="#757575" stroke="#757575" fill-opacity="1" stroke-opacity="1"/><path d="M391.87351958826184,1022.597319893539L1079.4082030188292,1026.2814281042665L661.7140892799944,970.4525840934366Z" fill="#4d4d4d" stroke="#4d4d4d" fill-opacity="1" stroke-opacity="1"/><path d="M391.87351958826184,1022.597319893539L661.7140892799944,970.4525840934366L516.099371323362,961.4718184433877Z" fill="#616161" stroke="#616161" fill-opacity="1" stroke-opacity="1"/><path d="M661.7140892799944,970.4525840934366L1079.4082030188292,1026.2814281042665L766.2109921406955,966.7702889163047Z" fill="#414141" stroke="#414141" fill-opacity="1" stroke-opacity="1"/><path d="M766.2109921406955,966.7702889163047L1079.4082030188292,1026.2814281042665L937.7510192524642,975.7997708860785Z" fill="#383838" stroke="#383838" fill-opacity="1" stroke-opacity="1"/><path d="M1079.4082030188292,1026.2814281042665L1551.9063158612698,1021.8287031445652L1445.9118655510247,999.1326918359846Z" fill="#090909" stroke="#090909" fill-opacity="1" stroke-opacity="1"/><path d="M1079.4082030188292,1026.2814281042665L1445.9118655510247,999.1326918359846L1247.9149968735874,929.0780387353152Z" fill="#151515" stroke="#151515" fill-opacity="1" stroke-opacity="1"/></g></svg>